<svg xmlns="http://www.w3.org/2000/svg" viewBox="0 0 521.77 28.54"><defs><style>.a{fill:#128349;}.b{fill:none;}</style></defs><path class="a" d="M34.53,21V7.35h4.6a9.67,9.67,0,0,1,4.41.84,6.36,6.36,0,0,1,2.58,2.46,6.9,6.9,0,0,1,1,3.53,6.69,6.69,0,0,1-.52,2.62A6.91,6.91,0,0,1,45,19a6.51,6.51,0,0,1-2.31,1.47,7.28,7.28,0,0,1-1.42.41,20.83,20.83,0,0,1-2.46.1Zm4.4-11.89H36.49V19.24H39a10.19,10.19,0,0,0,2.27-.2,5.23,5.23,0,0,0,1.36-.51,4.5,4.5,0,0,0,1-.76,5.05,5.05,0,0,0,1.44-3.7,4.67,4.67,0,0,0-1.48-3.58,4.73,4.73,0,0,0-1.26-.85A5.24,5.24,0,0,0,41,9.2,13.72,13.72,0,0,0,38.93,9.09Z" transform="translate(0 -0.73)"/><path class="a" d="M49.51,7.35h7.74V9.09H51.47v4.16h5.58V15H51.47v4.24h6V21H49.51Z" transform="translate(0 -0.73)"/><path class="a" d="M62.89,15.28l-1.48-.9a6.88,6.88,0,0,1-2-1.68,3.2,3.2,0,0,1-.59-1.9A3.33,3.33,0,0,1,60,8.19a4.12,4.12,0,0,1,2.9-1,5.51,5.51,0,0,1,3.14,1v2.22a4.49,4.49,0,0,0-3.17-1.42,2.61,2.61,0,0,0-1.58.44,1.33,1.33,0,0,0-.61,1.13,1.76,1.76,0,0,0,.45,1.15,5.55,5.55,0,0,0,1.46,1.12l1.49.89a4.38,4.38,0,0,1,2.5,3.79,3.5,3.5,0,0,1-1.1,2.67,4,4,0,0,1-2.86,1,6,6,0,0,1-3.68-1.24V17.43a4.57,4.57,0,0,0,3.66,2,2.32,2.32,0,0,0,1.53-.51,1.58,1.58,0,0,0,.61-1.28C64.69,16.81,64.09,16,62.89,15.28Z" transform="translate(0 -0.73)"/><path class="a" d="M68.69,7.35h2V21h-2Z" transform="translate(0 -0.73)"/><path class="a" d="M81.05,14.28h4.58v5.78a12.47,12.47,0,0,1-5,1.09,7.46,7.46,0,0,1-5.42-2,6.56,6.56,0,0,1-2-4.88,6.78,6.78,0,0,1,2.1-5.09,7.27,7.27,0,0,1,5.26-2,9.13,9.13,0,0,1,2.19.25,17.25,17.25,0,0,1,2.61.91v2a9.6,9.6,0,0,0-4.84-1.41,5.16,5.16,0,0,0-3.77,1.52,5.08,5.08,0,0,0-1.53,3.74A5,5,0,0,0,76.74,18a5.47,5.47,0,0,0,4,1.47,9.11,9.11,0,0,0,2.8-.53l.18-.06V16H81.05Z" transform="translate(0 -0.73)"/><path class="a" d="M99.32,7.35h1.85V21H99.49L90.37,10.49V21H88.54V7.35h1.58L99.32,18Z" transform="translate(0 -0.73)"/><path class="a" d="M109.69,7.18h.8v7.66H112V16.5h-1.52V21h-1.9V16.5h-5.77v-.84Zm-1.1,7.66v-4l-3.16,4Z" transform="translate(0 -0.73)"/><path class="a" d="M114.11,7.35h7.28V9.09h-5.32V12.9h5.32v1.74h-5.32V21h-2Z" transform="translate(0 -0.73)"/><path class="a" d="M123.54,21V7.35H127a4.94,4.94,0,0,1,3.28,1,3.44,3.44,0,0,1,1.22,2.77,3.52,3.52,0,0,1-.6,2.06,3.45,3.45,0,0,1-1.71,1.3,5.8,5.8,0,0,1,1.28,1.18,23,23,0,0,1,1.76,2.58c.48.78.86,1.36,1.14,1.75l.73,1h-2.33l-.59-.9-.12-.17-.38-.54-.61-1-.65-1.07A9.81,9.81,0,0,0,128.27,16a4,4,0,0,0-.91-.72,3,3,0,0,0-1.36-.22h-.51V21Zm2.54-12h-.59v4.3h.74a5.55,5.55,0,0,0,2-.25,2,2,0,0,0,.86-.77,2.27,2.27,0,0,0,.31-1.17,2.06,2.06,0,0,0-.35-1.16,1.75,1.75,0,0,0-1-.74A7.06,7.06,0,0,0,126.08,9Z" transform="translate(0 -0.73)"/><path class="a" d="M135.56,7.35h7.73V9.09h-5.78v4.16h5.59V15h-5.59v4.24h6V21h-7.92Z" transform="translate(0 -0.73)"/><path class="a" d="M145.56,7.35h7.73V9.09h-5.78v4.16h5.59V15h-5.59v4.24h6V21h-7.92Z" transform="translate(0 -0.73)"/><path class="a" d="M14.28,14.41A15.3,15.3,0,0,1,7.14,27.74,15.3,15.3,0,0,1,0,14.41,15.29,15.29,0,0,1,7.14,1.09,15.29,15.29,0,0,1,14.28,14.41Z" transform="translate(0 -0.73)"/><path class="a" d="M28.92,14.41a15.31,15.31,0,0,1-7.13,13.33,15.3,15.3,0,0,1-7.14-13.33A15.29,15.29,0,0,1,21.79,1.09,15.31,15.31,0,0,1,28.92,14.41Z" transform="translate(0 -0.73)"/><path class="a" d="M174.94,16.73a17.6,17.6,0,0,1,3.26,6.87,17.62,17.62,0,0,1-6.86-3.27,17.67,17.67,0,0,1-2.56,7.17,17.68,17.68,0,0,1-2.54-7.17,17.62,17.62,0,0,1-6.88,3.27,17.84,17.84,0,0,1,3.28-6.87,17.73,17.73,0,0,1-7.18-2.55,17.73,17.73,0,0,1,7.19-2.54,17.7,17.7,0,0,1-3.29-6.88A17.55,17.55,0,0,1,166.25,8,17.6,17.6,0,0,1,168.78.86,17.53,17.53,0,0,1,171.33,8a17.62,17.62,0,0,1,6.88-3.27,17.58,17.58,0,0,1-3.28,6.88,17.74,17.74,0,0,1,7.18,2.54A17.62,17.62,0,0,1,174.94,16.73Z" transform="translate(0 -0.73)"/><path class="a" d="M190.77,21h-4.62V7.35h3.57a6.25,6.25,0,0,1,2.64.46,3.26,3.26,0,0,1,1.95,3.09,3,3,0,0,1-2.09,2.88A4.23,4.23,0,0,1,194.6,15a3.21,3.21,0,0,1,.89,2.27,3.32,3.32,0,0,1-.54,1.86,3.9,3.9,0,0,1-1.58,1.34A5.87,5.87,0,0,1,190.77,21Zm-1-11.91H188.1v4.1h1.3a3.28,3.28,0,0,0,2.22-.59,2,2,0,0,0,.66-1.54C192.28,9.75,191.45,9.09,189.78,9.09Zm.15,5.84H188.1v4.33H190A6.13,6.13,0,0,0,192.2,19a2.11,2.11,0,0,0,.92-.78,2,2,0,0,0,.35-1.13A1.94,1.94,0,0,0,193.1,16a2.16,2.16,0,0,0-1-.77A6.47,6.47,0,0,0,189.93,14.93Z" transform="translate(0 -0.73)"/><path class="a" d="M206.9,7.35h2V15.1a9.27,9.27,0,0,1-.23,2.37,5.36,5.36,0,0,1-.57,1.33,4,4,0,0,1-.83,1A6.25,6.25,0,0,1,203,21.15a6.34,6.34,0,0,1-4.28-1.38,4.49,4.49,0,0,1-.83-1,4.75,4.75,0,0,1-.55-1.3,9.44,9.44,0,0,1-.22-2.42V7.35h2V15.1a5.76,5.76,0,0,0,.44,2.67A3.05,3.05,0,0,0,200.87,19a4.67,4.67,0,0,0,2.12.45,4.31,4.31,0,0,0,2.83-.9,2.86,2.86,0,0,0,.83-1.16,7.06,7.06,0,0,0,.25-2.27Z" transform="translate(0 -0.73)"/><path class="a" d="M219.78,7.35h2.37l-5,6.43V21h-2V13.78l-5-6.43h2.35l3.66,4.71Z" transform="translate(0 -0.73)"/><path class="a" d="M240.06,7.35h1.82V21h-2V10.38l-4.19,5.28h-.37l-4.24-5.28V21h-2V7.35H231L235.55,13Z" transform="translate(0 -0.73)"/><path class="a" d="M244.82,7.35h7.74V9.09h-5.78v4.16h5.58V15h-5.58v4.24h6V21h-7.92Z" transform="translate(0 -0.73)"/><path class="a" d="M262.73,7.28h1.38L270.22,21h-2L266.41,17h-5.82L258.88,21h-2Zm2.87,7.94-2.2-5-2,5Z" transform="translate(0 -0.73)"/><path class="a" d="M289,17.83V20a10.18,10.18,0,0,1-5,1.17,7.68,7.68,0,0,1-3.88-.91,6.87,6.87,0,0,1-2.52-2.53,7,7,0,0,1-.92-3.49,6.63,6.63,0,0,1,2.12-5,7.31,7.31,0,0,1,5.24-2,12.32,12.32,0,0,1,4.78,1.12v2.1A9.45,9.45,0,0,0,284.21,9a5.42,5.42,0,0,0-3.89,1.48,4.91,4.91,0,0,0-1.55,3.71,4.87,4.87,0,0,0,1.52,3.69,5.43,5.43,0,0,0,3.9,1.45A8.79,8.79,0,0,0,289,17.83Z" transform="translate(0 -0.73)"/><path class="a" d="M298.13,7.16a7.33,7.33,0,0,1,5.26,2,6.63,6.63,0,0,1,2.11,5,6.54,6.54,0,0,1-2.13,5,7.55,7.55,0,0,1-5.35,2,7.16,7.16,0,0,1-5.14-2,6.59,6.59,0,0,1-2.05-5,6.75,6.75,0,0,1,2.07-5.06A7.23,7.23,0,0,1,298.13,7.16ZM298.21,9a5.27,5.27,0,0,0-3.85,1.46,5,5,0,0,0-1.51,3.74,4.88,4.88,0,0,0,1.51,3.67,5.6,5.6,0,0,0,7.6,0,5,5,0,0,0,1.52-3.72A4.88,4.88,0,0,0,302,10.49,5.21,5.21,0,0,0,298.21,9Z" transform="translate(0 -0.73)"/><path class="a" d="M307.92,7.35h7.27V9.09h-5.32V12.9h5.32v1.74h-5.32V21h-1.95Z" transform="translate(0 -0.73)"/><path class="a" d="M317.3,7.35h7.28V9.09h-5.32V12.9h5.32v1.74h-5.32V21h-2Z" transform="translate(0 -0.73)"/><path class="a" d="M326.67,7.35h7.73V9.09h-5.78v4.16h5.59V15h-5.59v4.24h6V21h-7.92Z" transform="translate(0 -0.73)"/><path class="a" d="M336.67,7.35h7.73V9.09h-5.78v4.16h5.59V15h-5.59v4.24h6V21h-7.92Z" transform="translate(0 -0.73)"/><path class="a" d="M388.58,8.1H390l6.12,13.72h-2l-1.82-4h-5.82l-1.7,4h-2ZM391.45,16l-2.2-4.94-2,4.94Z" transform="translate(0 -0.73)"/><path class="a" d="M397.62,21.82V8.18H401a5,5,0,0,1,3.29,1A3.45,3.45,0,0,1,405.54,12a3.4,3.4,0,0,1-2.3,3.36,5.94,5.94,0,0,1,1.28,1.17,23.68,23.68,0,0,1,1.75,2.59c.48.77.86,1.35,1.15,1.74l.72,1h-2.33l-.59-.9-.12-.17-.38-.53-.6-1-.66-1.06a10.83,10.83,0,0,0-1.1-1.34,4.56,4.56,0,0,0-.91-.72,3.19,3.19,0,0,0-1.37-.22h-.51v5.94Zm2.54-12h-.59v4.3h.75a5.48,5.48,0,0,0,2-.25,1.84,1.84,0,0,0,.86-.77,2.17,2.17,0,0,0,.31-1.16,2.08,2.08,0,0,0-.34-1.17,1.88,1.88,0,0,0-1-.74A7.14,7.14,0,0,0,400.16,9.84Z" transform="translate(0 -0.73)"/><path class="a" d="M406.68,8.16h11.4V9.9h-4.76V21.82h-2V9.9h-4.68Z" transform="translate(0 -0.73)"/><path class="a" d="M437.3,8.18h1.95l-5.51,13.7h-.43l-4.46-11.09-4.51,11.09h-.42l-5.5-13.7h2l3.76,9.4,3.78-9.4h1.85l3.8,9.4Z" transform="translate(0 -0.73)"/><path class="a" d="M446.66,8a7.33,7.33,0,0,1,5.26,2A6.63,6.63,0,0,1,454,15a6.52,6.52,0,0,1-2.13,5,7.51,7.51,0,0,1-5.35,2,7.12,7.12,0,0,1-5.14-2,6.59,6.59,0,0,1-2.05-5A6.76,6.76,0,0,1,441.43,10,7.23,7.23,0,0,1,446.66,8Zm.08,1.86a5.31,5.31,0,0,0-3.85,1.46A5,5,0,0,0,441.38,15a4.92,4.92,0,0,0,1.51,3.67,5.62,5.62,0,0,0,7.6,0A5,5,0,0,0,452,15a4.86,4.86,0,0,0-1.53-3.64A5.18,5.18,0,0,0,446.74,9.84Z" transform="translate(0 -0.73)"/><path class="a" d="M456.49,21.82V8.18h3.42a4.93,4.93,0,0,1,3.28,1A3.46,3.46,0,0,1,464.41,12a3.55,3.55,0,0,1-.6,2.06,3.51,3.51,0,0,1-1.71,1.3,5.51,5.51,0,0,1,1.28,1.17,22.06,22.06,0,0,1,1.76,2.59q.72,1.16,1.14,1.74l.73,1h-2.33l-.59-.9-.12-.17-.38-.53-.61-1-.65-1.06a10,10,0,0,0-1.11-1.34,4.29,4.29,0,0,0-.91-.72,3.13,3.13,0,0,0-1.36-.22h-.51v5.94Zm2.54-12h-.59v4.3h.74a5.55,5.55,0,0,0,2-.25,1.89,1.89,0,0,0,.86-.77,2.26,2.26,0,0,0,.31-1.16,2.16,2.16,0,0,0-.34-1.17,1.86,1.86,0,0,0-1-.74A7.06,7.06,0,0,0,459,9.84Z" transform="translate(0 -0.73)"/><path class="a" d="M476.22,8.18h2.45l-5.92,6.47,7.37,7.17h-2.66l-7-6.74v6.74h-2V8.18h2v6.24Z" transform="translate(0 -0.73)"/><path class="a" d="M491.46,25.79H479.84V24.51h11.62Z" transform="translate(0 -0.73)"/><path class="a" d="M496.23,8a3.62,3.62,0,0,1,3.11,2,9.36,9.36,0,0,1,1.22,5A9.37,9.37,0,0,1,499.34,20a3.59,3.59,0,0,1-6.37,0,9.37,9.37,0,0,1-1.2-5.05A9.24,9.24,0,0,1,493,10,3.71,3.71,0,0,1,496.23,8Zm0,1.86h-.09a2,2,0,0,0-1.79,1.38,8.81,8.81,0,0,0-.65,3.74,9.1,9.1,0,0,0,.64,3.8,1.84,1.84,0,0,0,3.56,0,8.74,8.74,0,0,0,.66-3.74,9.41,9.41,0,0,0-.63-3.78C497.53,10.33,497,9.86,496.25,9.86Z" transform="translate(0 -0.73)"/><path class="a" d="M505.2,8.18h1.95V21.82H505.2Z" transform="translate(0 -0.73)"/><path class="a" d="M378.4,19.77l-.59,1.42-9.47-3.92-.06.07,7.23,7.22-1.05,1.08-7.22-7.24-.1.06,3.92,9.46-1.41.6c-1.31-3.16-2.62-6.3-3.92-9.45h-.07V29.27h-1.53V19.08l-.1,0-3.92,9.46-1.42-.59,4-9.58-7.3,7.33-1.08-1.11,7.23-7.2-.08-.1L352,21.19l-.59-1.42,9.51-3.94v-.07H350.61v-1.5h10.18l0-.1-9.45-3.92L352,8.82l9.51,3.94-7.25-7.25,1.13-1.07,7.15,7.19.12-.09q-2-4.71-3.92-9.46l1.42-.58L364,11h.07V.73h1.51V11l.09,0,3.94-9.48,1.41.58-3.93,9.51,7.21-7.25,1.11,1.14-7.18,7.15.08.11,9.46-3.92.59,1.42-9.46,3.89v.09h10.19v1.53H368.93l0,.11Z" transform="translate(0 -0.73)"/><rect class="b" x="505" y="5.62" width="4" height="17.95"/></svg>